# xmcd CD database file generated by Grip 2.96
# 
# Track frame offsets:
#       183
#       20648
#       41708
#       66218
#       108670
#       122260
#       145295
#       168730
#       193670
#       223485
#       255530
#       290148
#       316025
# 
# Disc length: 4766 seconds
# 
# Revision: 0
# Processed by: cddbd v1.4PL0 Copyright (c) Steve Scherf et al.
# Submitted via: Grip 2.96
# 
DISCID=cf129c0d
DTITLE=Buddy GUy - Buddy Guy And Friends Volume 1
DYEAR=1900
DGENRE=
TTITLE0=She Suits Me To A T
TTITLE1=Girl You're Nica And Clean
TTITLE2=Stone Crazy
TTITLE3=Tell Me What's Inside Of You
TTITLE4=Comin' On
TTITLE5=Love Is Like Quicksand
TTITLE6=All I Can Do
TTITLE7=Smokin' Dynamite
TTITLE8=The Dollar Done Fell
TTITLE9=Blues At My Baby;s Home
TTITLE10=Highwayman Blues
TTITLE11=My Way Or The Highway
TTITLE12=I've Got A Right To Love My Woman - Blues In The Night
EXTD=
EXTT0=
EXTT1=
EXTT2=
EXTT3=
EXTT4=
EXTT5=
EXTT6=
EXTT7=
EXTT8=
EXTT9=
EXTT10=
EXTT11=
EXTT12=
PLAYORDER=
